<?xml version="1.0" encoding="UTF-8"?>
<svg version="1.1" xmlns="http://www.w3.org/2000/svg" width="153" height="174">
<path d="M0 0 C50.49 0 100.98 0 153 0 C153 57.42 153 114.84 153 174 C102.51 174 52.02 174 0 174 C0 116.58 0 59.16 0 0 Z " fill="#FCFDFD" transform="translate(0,0)"/>
<path d="M0 0 C50.49 0 100.98 0 153 0 C153 57.42 153 114.84 153 174 C102.51 174 52.02 174 0 174 C0 116.58 0 59.16 0 0 Z M12 8 C12 60.47 12 112.94 12 167 C55.23 167 98.46 167 143 167 C143 114.53 143 62.06 143 8 C99.77 8 56.54 8 12 8 Z " fill="#FBFBFB" transform="translate(0,0)"/>
<path d="M0 0 C43.23 0 86.46 0 131 0 C131 52.47 131 104.94 131 159 C87.77 159 44.54 159 0 159 C0 106.53 0 54.06 0 0 Z M6 5 C6 11.93 6 18.86 6 26 C7.65 26 9.3 26 11 26 C11 25.34 11 24.68 11 24 C11.99 23.938125 12.98 23.87625 14 23.8125 C17.1735345 23.37279341 19.21960621 22.40059465 21.875 20.625 C28.98926521 15.90495866 36.44540002 13.86234163 45 15 C47.18359375 15.73046875 47.18359375 15.73046875 49 17 C50.046875 19.1640625 50.046875 19.1640625 50.75 21.625 C50.99234375 22.44226563 51.2346875 23.25953125 51.484375 24.1015625 C51.65453125 24.72804688 51.8246875 25.35453125 52 26 C54.64 26 57.28 26 60 26 C60 31.28 60 36.56 60 42 C54.72 42 49.44 42 44 42 C44 41.34 44 40.68 44 40 C43.15703369 39.91435791 42.31406738 39.82871582 41.44555664 39.74047852 C38.32734269 39.42157272 35.2095686 39.09873511 32.09204102 38.77319336 C30.7409679 38.63293399 29.38972952 38.49425733 28.03833008 38.35717773 C26.09934768 38.16022206 24.16098873 37.9571585 22.22265625 37.75390625 C20.47094116 37.57323608 20.47094116 37.57323608 18.68383789 37.38891602 C16 37 16 37 15 36 C12.03 36 9.06 36 6 36 C6 75.27 6 114.54 6 155 C45.27 155 84.54 155 125 155 C125 115.73 125 76.46 125 36 C122.03 36 119.06 36 116 36 C115.505 36.495 115.505 36.495 115 37 C112.26546678 37.36249748 109.54493481 37.66826966 106.80078125 37.9375 C105.55907417 38.06499634 105.55907417 38.06499634 104.2922821 38.19506836 C101.63275989 38.46754635 98.97268742 38.73410125 96.3125 39 C93.67026291 39.26675159 91.02816832 39.53478412 88.38627625 39.80493164 C86.74034837 39.97296168 85.09420651 40.13891241 83.4478302 40.30249023 C82.6907225 40.37927002 81.93361481 40.4560498 81.15356445 40.53515625 C80.49483841 40.600979 79.83611237 40.66680176 79.15742493 40.73461914 C76.4263478 41.0705639 73.71422221 41.54762963 71 42 C71 36.72 71 31.44 71 26 C72.52625 26.12375 74.0525 26.2475 75.625 26.375 C79.44968896 26.47594793 79.44968896 26.47594793 82.6484375 24.6640625 C83.31746094 23.84035156 83.31746094 23.84035156 84 23 C85.68711255 21.0270156 86.56711814 20.11871947 89.09375 19.42578125 C95.72539728 19.11357708 101.20310749 21.38702961 107.3046875 23.75390625 C113.14653962 25.72383313 118.85880034 26.31068167 125 27 C125 19.74 125 12.48 125 5 C85.73 5 46.46 5 6 5 Z " fill="#1489C4" transform="translate(12,8)"/>
<path d="M0 0 C2.31 0 4.62 0 7 0 C7 11.88 7 23.76 7 36 C13.27 34.35 19.54 32.7 26 31 C26 30.34 26 29.68 26 29 C25.02417969 28.95101562 24.04835937 28.90203125 23.04296875 28.8515625 C21.13451172 28.73941406 21.13451172 28.73941406 19.1875 28.625 C17.92292969 28.55539063 16.65835938 28.48578125 15.35546875 28.4140625 C12 28 12 28 9 26 C9.33 24.35 9.66 22.7 10 21 C26.8929385 20.261959 26.8929385 20.261959 34 25 C34.25 32.625 34.25 32.625 32 36 C29.68191636 37.03485877 27.34824702 38.0355414 25 39 C24.34 39.66 23.68 40.32 23 41 C22.01 41 21.02 41 20 41 C20.433125 41.60328125 20.86625 42.2065625 21.3125 42.828125 C21.869375 43.62734375 22.42625 44.4265625 23 45.25 C23.8353125 46.43335937 23.8353125 46.43335937 24.6875 47.640625 C26 50 26 50 26 54 C28.31 54 30.62 54 33 54 C33 55.98 33 57.96 33 60 C34.32 60 35.64 60 37 60 C37 58.02 37 56.04 37 54 C38.65 54 40.3 54 42 54 C42 58.95 42 63.9 42 69 C40.35 69 38.7 69 37 69 C37 67.02 37 65.04 37 63 C35.35 63 33.7 63 32 63 C32 64.98 32 66.96 32 69 C30.02 69 28.04 69 26 69 C25.505 64.545 25.505 64.545 25 60 C24.01 60.99 23.02 61.98 22 63 C21.34 63 20.68 63 20 63 C20 63.66 20 64.32 20 65 C19.34 65.66 18.68 66.32 18 67 C18.474375 67.433125 18.94875 67.86625 19.4375 68.3125 C22.32855078 71.43483484 22.33082307 74.94395035 22.29296875 79.0625 C22 81 22 81 20.125 83.4375 C18 85 18 85 16 86 C16.04640625 86.95261719 16.0928125 87.90523438 16.140625 88.88671875 C16.19476563 90.76810547 16.19476563 90.76810547 16.25 92.6875 C16.29640625 93.92886719 16.3428125 95.17023438 16.390625 96.44921875 C15.93433969 100.59685222 14.62456198 101.88202037 12 105 C11.87531664 107.25802458 11.87531664 107.25802458 12.5 109.4375 C13.14638465 113.26460909 13.075348 113.8519022 11.1875 117.5625 C10.465625 118.366875 9.74375 119.17125 9 120 C8.34 120 7.68 120 7 120 C7 116.37 7 112.74 7 109 C6.01 108.67 5.02 108.34 4 108 C4 112.95 4 117.9 4 123 C3.34 122.67 2.68 122.34 2 122 C2 117.38 2 112.76 2 108 C0.515 108.495 0.515 108.495 -1 109 C-1 112.63 -1 116.26 -1 120 C-5 117 -5 117 -5.64453125 115.09765625 C-6.21132669 108.23020451 -6.21132669 108.23020451 -5 105 C-5.804375 104.54625 -6.60875 104.0925 -7.4375 103.625 C-10 102 -10 102 -11 100 C-11.40601504 91.60902256 -11.40601504 91.60902256 -9 88 C-9.66 88 -10.32 88 -11 88 C-14.53791419 82.69312872 -15.92974129 79.40488445 -15 73 C-12.5625 70.1875 -12.5625 70.1875 -10 68 C-9.505 66.515 -9.505 66.515 -9 65 C-9.99 65 -10.98 65 -12 65 C-13.4375 63.75 -13.4375 63.75 -15 62 C-15.70125 61.319375 -16.4025 60.63875 -17.125 59.9375 C-19.69101878 57.28594726 -19.97177346 56.38105834 -20.25 52.625 C-19.98902045 48.84079657 -19.7891185 47.500589 -17 45 C-14.3125 44.25 -14.3125 44.25 -12 44 C-12.495 42.515 -12.495 42.515 -13 41 C-14.92322856 40.27049951 -16.84881204 39.54622139 -18.7890625 38.86328125 C-22.32511602 37.48259604 -25.54207719 35.9615339 -28 33 C-28.59897701 30.09685015 -28.35559107 27.99712474 -28 25 C-22.50168526 21.33445684 -18.09235562 20.61345115 -11.625 20.625 C-10.91085938 20.62371094 -10.19671875 20.62242188 -9.4609375 20.62109375 C-4.26993482 20.73006518 -4.26993482 20.73006518 -2 23 C-2 23.99 -2 24.98 -2 26 C-5.74235319 28.44989101 -9.44225419 28.23086143 -13.75 28.125 C-14.79607422 28.11146484 -14.79607422 28.11146484 -15.86328125 28.09765625 C-17.57566958 28.07419888 -19.28788004 28.03833104 -21 28 C-21 28.99 -21 29.98 -21 31 C-20.01 31 -19.02 31 -18 31 C-18 31.66 -18 32.32 -18 33 C-16.6078125 33.185625 -16.6078125 33.185625 -15.1875 33.375 C-10.1062244 34.13339934 -5.05469151 35.08096518 0 36 C0 24.12 0 12.24 0 0 Z " fill="#437EB2" transform="translate(74,32)"/>
<path d="M0 0 C38.94 0 77.88 0 118 0 C118 6.6 118 13.2 118 20 C110.19469027 18.88495575 110.19469027 18.88495575 107.125 17.125 C103.54056807 15.20028558 99.96387003 13.89902501 96.078125 12.7109375 C94 12 94 12 92.046875 10.9296875 C89.56664956 9.80317289 87.7151656 9.73344411 85 9.75 C84.154375 9.74484375 83.30875 9.7396875 82.4375 9.734375 C79.7714994 10.02490071 78.1945372 10.45605568 76 12 C75.09390008 13.93981618 75.09390008 13.93981618 74.75 16.125 C74.37875 18.043125 74.37875 18.043125 74 20 C70.7 20 67.4 20 64 20 C64.32552083 17.4609375 64.65104167 14.921875 64.9765625 12.3828125 C64.98429687 11.59648437 64.99203125 10.81015625 65 10 C62.60236815 7.60236815 61.66726502 7.65719414 58.375 7.375 C57.55773437 7.30023437 56.74046875 7.22546875 55.8984375 7.1484375 C55.27195313 7.09945313 54.64546875 7.05046875 54 7 C52.9929762 12.03511899 53.02612187 15.23947038 55 20 C47.25 20.125 47.25 20.125 45 19 C44.16414981 16.96945295 43.53369729 14.90783132 42.87890625 12.8125 C42.58886719 12.214375 42.29882812 11.61625 42 11 C34.52431522 8.50810507 27.0782683 9.9120702 20 13 C18.30280873 13.94726954 16.63064764 14.94228261 15 16 C11.18170982 18.10395582 9.42936032 19 5 19 C5 19.66 5 20.32 5 21 C3.35 21 1.7 21 0 21 C0 14.07 0 7.14 0 0 Z " fill="#F9FBFB" transform="translate(18,13)"/>
<path d="M0 0 C0.33 0 0.66 0 1 0 C1 7.26 1 14.52 1 22 C-15.74107143 19.32142857 -15.74107143 19.32142857 -21.9375 16.8125 C-26.94116384 14.85818145 -31.67236715 13.69411486 -37 15 C-38.68907645 16.42194757 -39.96184321 17.95302083 -41.3515625 19.6640625 C-44.69191498 22.3711728 -48.94293652 21.32895109 -53 21 C-53 26.28 -53 31.56 -53 37 C-51.02 36.67 -49.04 36.34 -47 36 C-45.37605252 35.9379225 -43.74994703 35.91287959 -42.125 35.9375 C-40.95324219 35.95103516 -40.95324219 35.95103516 -39.7578125 35.96484375 C-39.17773438 35.97644531 -38.59765625 35.98804688 -38 36 C-38 37.33333333 -38 38.66666667 -38 40 C-42.62 40.33 -47.24 40.66 -52 41 C-52 42.32 -52 43.64 -52 45 C-49.0384304 46.4807848 -46.16493705 46.35314037 -42.875 46.5625 C-41.59367187 46.64628906 -40.31234375 46.73007812 -38.9921875 46.81640625 C-38.00476563 46.87699219 -37.01734375 46.93757813 -36 47 C-36 48.32 -36 49.64 -36 51 C-38.22667765 51.67493341 -40.45645977 52.33963044 -42.6875 53 C-43.92886719 53.37125 -45.17023438 53.7425 -46.44921875 54.125 C-50 55 -50 55 -55 55 C-55 43.12 -55 31.24 -55 19 C-57.31 19 -59.62 19 -62 19 C-62 30.88 -62 42.76 -62 55 C-71 55 -71 55 -75.5 53.5 C-76.3559375 53.2215625 -77.211875 52.943125 -78.09375 52.65625 C-78.7228125 52.4396875 -79.351875 52.223125 -80 52 C-80 51.34 -80 50.68 -80 50 C-80.99 50 -81.98 50 -83 50 C-83 49.01 -83 48.02 -83 47 C-81.96359375 46.93941406 -80.9271875 46.87882812 -79.859375 46.81640625 C-78.48957127 46.73196629 -77.11978025 46.64732003 -75.75 46.5625 C-75.06808594 46.52318359 -74.38617188 46.48386719 -73.68359375 46.44335938 C-70.35551959 46.23333528 -67.19744598 45.98065998 -64 45 C-64.66 43.68 -65.32 42.36 -66 41 C-68.56278699 40.94579299 -71.12441483 40.90622993 -73.6875 40.875 C-74.40873047 40.85824219 -75.12996094 40.84148438 -75.87304688 40.82421875 C-80.04876781 40.78608431 -83.2494138 41.1210081 -87 43 C-87 42.34 -87 41.68 -87 41 C-85.515 40.505 -85.515 40.505 -84 40 C-83.505 39.01 -83.505 39.01 -83 38 C-83.7520874 37.91435791 -84.5041748 37.82871582 -85.27905273 37.74047852 C-88.66573295 37.35229855 -92.05160761 36.95749016 -95.4375 36.5625 C-96.62150391 36.42779297 -97.80550781 36.29308594 -99.02539062 36.15429688 C-100.15009766 36.02216797 -101.27480469 35.89003906 -102.43359375 35.75390625 C-103.99678345 35.57323608 -103.99678345 35.57323608 -105.59155273 35.38891602 C-108 35 -108 35 -109 34 C-112.96 33.505 -112.96 33.505 -117 33 C-117 71.28 -117 109.56 -117 149 C-78.39 149 -39.78 149 0 149 C0 110.39 0 71.78 0 32 C-4.455 32.495 -4.455 32.495 -9 33 C-8.505 32.01 -8.505 32.01 -8 31 C-5.03 31 -2.06 31 1 31 C1 70.27 1 109.54 1 150 C-38.27 150 -77.54 150 -118 150 C-118 110.73 -118 71.46 -118 31 C-115.03 31 -112.06 31 -109 31 C-108.67 31.33 -108.34 31.66 -108 32 C-105.93221142 32.29964406 -103.8557051 32.53954611 -101.77734375 32.75390625 C-100.51728516 32.88603516 -99.25722656 33.01816406 -97.95898438 33.15429688 C-96.61849918 33.2904591 -95.27800426 33.42652556 -93.9375 33.5625 C-92.59305707 33.70207106 -91.24865537 33.84203986 -89.90429688 33.98242188 C-86.6032506 34.32554138 -83.30183269 34.66454667 -80 35 C-80 35.66 -80 36.32 -80 37 C-74.72 37 -69.44 37 -64 37 C-64 31.72 -64 26.44 -64 21 C-66.64 21 -69.28 21 -72 21 C-72.495 20.01 -72.495 20.01 -73 19 C-69.7 19.33 -66.4 19.66 -63 20 C-63.515625 19.113125 -64.03125 18.22625 -64.5625 17.3125 C-66.1017265 13.76558677 -66.19218082 12.57654245 -65 9 C-64.67 8.34 -64.34 7.68 -64 7 C-62.56344146 6.91868537 -61.1255517 6.86066441 -59.6875 6.8125 C-58.48673828 6.76029297 -58.48673828 6.76029297 -57.26171875 6.70703125 C-55 7 -55 7 -53.2265625 8.328125 C-51.34342915 10.8949437 -51.68404295 12.90362095 -52 16 C-52.66 17.32 -53.32 18.64 -54 20 C-50.7 20 -47.4 20 -44 20 C-43.9071875 18.1128125 -43.9071875 18.1128125 -43.8125 16.1875 C-43.40383724 13.14941503 -43.25612085 12.26438281 -41.0625 10 C-35.52094853 8.19051381 -30.19480304 8.05322222 -24.8125 10.375 C-23.884375 10.91125 -22.95625 11.4475 -22 12 C-20.948125 12.28875 -19.89625 12.5775 -18.8125 12.875 C-14.49193319 14.14992135 -10.61013221 15.9439681 -6.55078125 17.87890625 C-3.82141051 19.16386878 -3.82141051 19.16386878 0 20 C0 13.4 0 6.8 0 0 Z " fill="#B3D5E8" transform="translate(136,13)"/>
<path d="M0 0 C2.99963174 2.99963174 3.25346686 5.8601344 4 10 C6.64 10.33 9.28 10.66 12 11 C12 16.28 12 21.56 12 27 C6.72 27 1.44 27 -4 27 C-4 26.34 -4 25.68 -4 25 C-5.918125 25.061875 -5.918125 25.061875 -7.875 25.125 C-13.14964345 25.13261132 -18.32591924 24.63698158 -23.5625 24.0625 C-24.37251465 23.97564941 -25.1825293 23.88879883 -26.01708984 23.79931641 C-31.8735061 23.1264939 -31.8735061 23.1264939 -33 22 C-35.98889359 21.54234333 -38.98969648 21.29679049 -42 21 C-42 18.03 -42 15.06 -42 12 C-40.35 11.67 -38.7 11.34 -37 11 C-37 10.34 -37 9.68 -37 9 C-35.80375 8.566875 -34.6075 8.13375 -33.375 7.6875 C-28.81715241 5.9752927 -24.55703674 3.98738915 -20.4375 1.375 C-14.4986931 -1.9750962 -6.40308867 -2.13436289 0 0 Z " fill="#3D7AB0" transform="translate(60,23)"/>
<path d="M0 0 C43.23 0 86.46 0 131 0 C131 52.47 131 104.94 131 159 C87.77 159 44.54 159 0 159 C0 106.53 0 54.06 0 0 Z M2 2 C2 53.48 2 104.96 2 158 C43.91 158 85.82 158 129 158 C129 106.52 129 55.04 129 2 C87.09 2 45.18 2 2 2 Z " fill="#233B46" transform="translate(12,8)"/>
<path d="M0 0 C4.65701553 0.85985327 8.93864728 2.58683487 13.34375 4.29296875 C17.71728562 5.82130318 21.99100111 6.56357385 26.5703125 7.17578125 C28.8984375 7.53515625 28.8984375 7.53515625 30.8984375 8.53515625 C31.4609375 10.84765625 31.4609375 10.84765625 31.8984375 13.53515625 C32.22327168 14.87058564 32.553523 16.20477176 32.8984375 17.53515625 C30.49355539 18.73759731 29.00793719 18.60377904 26.3359375 18.53515625 C24.85725529 18.49730199 23.37687962 18.48886452 21.8984375 18.53515625 C21.4034375 19.03015625 21.4034375 19.03015625 20.8984375 19.53515625 C18.16398773 19.91001746 15.44385095 20.22786888 12.69921875 20.5078125 C11.87141403 20.59518173 11.04360931 20.68255096 10.1907196 20.77256775 C8.43311389 20.95703331 6.67527681 21.13930521 4.91723633 21.31958008 C2.23912071 21.59476038 -0.43806663 21.87787175 -3.11523438 22.16210938 C-4.82286686 22.3403216 -6.53054777 22.51807061 -8.23828125 22.6953125 C-9.0353801 22.77967056 -9.83247894 22.86402863 -10.6537323 22.95094299 C-11.41084 23.02779831 -12.16794769 23.10465363 -12.94799805 23.18383789 C-13.60672409 23.25188126 -14.26545013 23.31992462 -14.94413757 23.39002991 C-17.65757723 23.57255843 -20.38199058 23.53515625 -23.1015625 23.53515625 C-23.1015625 18.25515625 -23.1015625 12.97515625 -23.1015625 7.53515625 C-21.5753125 7.49390625 -20.0490625 7.45265625 -18.4765625 7.41015625 C-14.63188737 7.10237659 -14.63188737 7.10237659 -11.453125 5.1328125 C-11.00710937 4.58496094 -10.56109375 4.03710938 -10.1015625 3.47265625 C-7.0350759 -0.05380334 -4.56904379 -0.26755662 0 0 Z " fill="#3A79AF" transform="translate(106.1015625,26.46484375)"/>
<path d="M0 0 C0.33 0 0.66 0 1 0 C1 7.26 1 14.52 1 22 C-15.74107143 19.32142857 -15.74107143 19.32142857 -21.9375 16.8125 C-26.94116384 14.85818145 -31.67236715 13.69411486 -37 15 C-38.68907645 16.42194757 -39.96184321 17.95302083 -41.3515625 19.6640625 C-44.69191498 22.3711728 -48.94293652 21.32895109 -53 21 C-53 26.28 -53 31.56 -53 37 C-50.03 36.505 -50.03 36.505 -47 36 C-45.37605252 35.9379225 -43.74994703 35.91287959 -42.125 35.9375 C-40.95324219 35.95103516 -40.95324219 35.95103516 -39.7578125 35.96484375 C-39.17773438 35.97644531 -38.59765625 35.98804688 -38 36 C-38 37.33333333 -38 38.66666667 -38 40 C-42.62 40.33 -47.24 40.66 -52 41 C-52 42.32 -52 43.64 -52 45 C-49.0384304 46.4807848 -46.16493705 46.35314037 -42.875 46.5625 C-41.59367187 46.64628906 -40.31234375 46.73007812 -38.9921875 46.81640625 C-38.00476563 46.87699219 -37.01734375 46.93757813 -36 47 C-36 48.32 -36 49.64 -36 51 C-38.22667765 51.67493341 -40.45645977 52.33963044 -42.6875 53 C-43.92886719 53.37125 -45.17023438 53.7425 -46.44921875 54.125 C-50 55 -50 55 -55 55 C-55 43.12 -55 31.24 -55 19 C-57.31 19 -59.62 19 -62 19 C-62 24.94 -62 30.88 -62 37 C-62.66 37 -63.32 37 -64 37 C-64 31.72 -64 26.44 -64 21 C-66.64 21 -69.28 21 -72 21 C-72.33 20.34 -72.66 19.68 -73 19 C-69.7 19.33 -66.4 19.66 -63 20 C-63.515625 19.113125 -64.03125 18.22625 -64.5625 17.3125 C-66.1017265 13.76558677 -66.19218082 12.57654245 -65 9 C-64.67 8.34 -64.34 7.68 -64 7 C-62.56344146 6.91868537 -61.1255517 6.86066441 -59.6875 6.8125 C-58.48673828 6.76029297 -58.48673828 6.76029297 -57.26171875 6.70703125 C-55 7 -55 7 -53.2265625 8.328125 C-51.34342915 10.8949437 -51.68404295 12.90362095 -52 16 C-52.66 17.32 -53.32 18.64 -54 20 C-50.7 20 -47.4 20 -44 20 C-43.9071875 18.1128125 -43.9071875 18.1128125 -43.8125 16.1875 C-43.40383724 13.14941503 -43.25612085 12.26438281 -41.0625 10 C-35.52094853 8.19051381 -30.19480304 8.05322222 -24.8125 10.375 C-23.4203125 11.179375 -23.4203125 11.179375 -22 12 C-20.948125 12.28875 -19.89625 12.5775 -18.8125 12.875 C-14.49193319 14.14992135 -10.61013221 15.9439681 -6.55078125 17.87890625 C-3.82141051 19.16386878 -3.82141051 19.16386878 0 20 C0 13.4 0 6.8 0 0 Z " fill="#99BAD2" transform="translate(136,13)"/>
<path d="M0 0 C39.6 0 79.2 0 120 0 C120 0.33 120 0.66 120 1 C81.06 1 42.12 1 2 1 C2 7.93 2 14.86 2 22 C2.66 22.33 3.32 22.66 4 23 C3.34 23 2.68 23 2 23 C2 65.24 2 107.48 2 151 C1.34 151 0.68 151 0 151 C0 101.17 0 51.34 0 0 Z " fill="#53A7D2" transform="translate(16,12)"/>
<path d="M0 0 C4.62 0 9.24 0 14 0 C14.33 0.99 14.66 1.98 15 3 C15.66 3 16.32 3 17 3 C17.33 4.98 17.66 6.96 18 9 C17.360625 9.433125 16.72125 9.86625 16.0625 10.3125 C13.73253997 11.91239177 13.73253997 11.91239177 13 15 C2.55543988 15.89953149 2.55543988 15.89953149 -0.9453125 13.875 C-2.3125 12.375 -2.3125 12.375 -4 9 C-3.8125 5.625 -3.8125 5.625 -3 3 C-2.34 3 -1.68 3 -1 3 C-0.67 2.01 -0.34 1.02 0 0 Z " fill="#5491BF" transform="translate(70,78)"/>
<path d="M0 0 C0.33 0 0.66 0 1 0 C1 7.26 1 14.52 1 22 C-15.74107143 19.32142857 -15.74107143 19.32142857 -21.9375 16.8125 C-26.95358836 14.85332871 -31.65994897 13.71391441 -37 15 C-39.57249389 16.77661255 -41.02922875 18.51060474 -43 21 C-43.99 20.67 -44.98 20.34 -46 20 C-45.34 20 -44.68 20 -44 20 C-43.938125 18.741875 -43.87625 17.48375 -43.8125 16.1875 C-43.40383724 13.14941503 -43.25612085 12.26438281 -41.0625 10 C-35.52094853 8.19051381 -30.19480304 8.05322222 -24.8125 10.375 C-23.884375 10.91125 -22.95625 11.4475 -22 12 C-20.948125 12.28875 -19.89625 12.5775 -18.8125 12.875 C-14.49193319 14.14992135 -10.61013221 15.9439681 -6.55078125 17.87890625 C-3.82141051 19.16386878 -3.82141051 19.16386878 0 20 C0 13.4 0 6.8 0 0 Z " fill="#629DC6" transform="translate(136,13)"/>
<path d="M0 0 C0.33 1.32 0.66 2.64 1 4 C3.31 4 5.62 4 8 4 C8 5.98 8 7.96 8 10 C9.32 10 10.64 10 12 10 C12 8.02 12 6.04 12 4 C13.65 4 15.3 4 17 4 C17 8.95 17 13.9 17 19 C15.35 19 13.7 19 12 19 C12 17.02 12 15.04 12 13 C10.35 13 8.7 13 7 13 C7 14.98 7 16.96 7 19 C5.02 19 3.04 19 1 19 C0.67 12.73 0.34 6.46 0 0 Z " fill="#2F9FD8" transform="translate(99,82)"/>
<path d="M0 0 C3.3549696 0.50751929 5.16247958 1.92773863 7.453125 4.37109375 C6.95277936 8.07365151 6.44622764 10.06156 3.453125 12.37109375 C-1.46690308 13.29672615 -5.44325867 13.0774082 -9.671875 10.37109375 C-10.290625 9.71109375 -10.909375 9.05109375 -11.546875 8.37109375 C-10.51086485 0.70461862 -7.17276888 -0.17827057 0 0 Z " fill="#74A5C8" transform="translate(79.546875,102.62890625)"/>
<path d="M0 0 C2.74097764 2.74097764 2.72378174 5.1618108 2.9375 8.9375 C2.2775 8.9375 1.6175 8.9375 0.9375 8.9375 C0.4425 7.9475 0.4425 7.9475 -0.0625 6.9375 C-3.73883816 4.29053652 -7.73839317 4.49451046 -12.0625 4.9375 C-20.38881275 6.21556272 -20.38881275 6.21556272 -28.25 9.03125 C-31.11414788 10.46332394 -33.92399288 10.05821181 -37.0625 9.9375 C-34.93160877 8.86959377 -32.79826178 7.80731434 -30.66015625 6.75390625 C-25.3625251 4.13964295 -25.3625251 4.13964295 -20.25 1.1875 C-14.43920897 -2.13295202 -6.22472692 -2.15959913 0 0 Z " fill="#76A9CC" transform="translate(60.0625,23.0625)"/>
<path d="M0 0 C0.99 0.33 1.98 0.66 3 1 C2.67 1.33 2.34 1.66 2 2 C6.455 2.99 6.455 2.99 11 4 C12.05948517 8.41452154 12.3447529 10.34615829 10.1875 14.4375 C9.465625 15.283125 8.74375 16.12875 8 17 C7.34 17 6.68 17 6 17 C6 13.37 6 9.74 6 6 C5.01 5.67 4.02 5.34 3 5 C3 9.95 3 14.9 3 20 C2.34 19.67 1.68 19.34 1 19 C1 14.38 1 9.76 1 5 C0.01 5.33 -0.98 5.66 -2 6 C-2 9.63 -2 13.26 -2 17 C-6 14 -6 14 -6.8125 10.125 C-7.07321743 6.91343525 -6.87892458 4.12506518 -6 1 C-4.35 1.33 -2.7 1.66 -1 2 C-0.67 1.34 -0.34 0.68 0 0 Z " fill="#5085B4" transform="translate(75,135)"/>
<path d="M0 0 C1.2065625 0.0309375 1.2065625 0.0309375 2.4375 0.0625 C2.7675 2.0425 3.0975 4.0225 3.4375 6.0625 C4.0975 6.0625 4.7575 6.0625 5.4375 6.0625 C5.4375 7.0525 5.4375 8.0425 5.4375 9.0625 C6.0975 9.0625 6.7575 9.0625 7.4375 9.0625 C7.7675 11.0425 8.0975 13.0225 8.4375 15.0625 C3.1575 15.0625 -2.1225 15.0625 -7.5625 15.0625 C-6.9025 12.0925 -6.2425 9.1225 -5.5625 6.0625 C-4.9025 6.0625 -4.2425 6.0625 -3.5625 6.0625 C-3.583125 5.258125 -3.60375 4.45375 -3.625 3.625 C-3.54067676 0.16774696 -3.45725304 0.08432324 0 0 Z " fill="#24A1E0" transform="translate(48.5625,85.9375)"/>
<path d="M0 0 C1.98 0 3.96 0 6 0 C6 11.88 6 23.76 6 36 C10.455 35.505 10.455 35.505 15 35 C14.67 35.66 14.34 36.32 14 37 C10.37 37 6.74 37 3 37 C2.95055934 32.35524041 2.91426137 27.71063404 2.89013672 23.06567383 C2.88007959 21.48556856 2.86643215 19.9054819 2.84912109 18.32543945 C2.82485978 16.0541525 2.81351418 13.78311164 2.8046875 11.51171875 C2.79436493 10.80536789 2.78404236 10.09901703 2.77340698 9.3712616 C2.77256225 5.67802208 2.89279477 4.16080784 5 1 C1.9254644 1.7763932 1.9254644 1.7763932 0 4 C0 2.68 0 1.36 0 0 Z " fill="#5792BF" transform="translate(75,32)"/>
<path d="M0 0 C2.59587154 0.04660452 3.88303153 0.1180172 6.1875 1.375 C7.620401 4.240802 6.97410305 6.24548152 6.125 9.25 C3.07516004 10.77491998 0.4826631 10.48562548 -2.875 10.25 C-4.875 9.125 -4.875 9.125 -5.875 7.25 C-5.32247082 0.34338521 -5.32247082 0.34338521 0 0 Z " fill="#699FC8" transform="translate(76.875,123.75)"/>
<path d="M0 0 C5.94 0.33 11.88 0.66 18 1 C18 2.32 18 3.64 18 5 C12.12116651 7.61281488 6.29268272 7.18328202 0 7 C0 4.69 0 2.38 0 0 Z " fill="#F6F8F9" transform="translate(82,59)"/>
<path d="M0 0 C2.97 0 5.94 0 9 0 C11.08954032 4.17908064 11.16552619 4.80410573 10 9 C3.72307692 10.35384615 3.72307692 10.35384615 0.0625 8.5625 C-0.618125 8.046875 -1.29875 7.53125 -2 7 C-1.125 2.25 -1.125 2.25 0 0 Z " fill="#4A8BBB" transform="translate(72,20)"/>
<path d="M0 0 C1.47906892 -0.02689216 2.95827483 -0.04634621 4.4375 -0.0625 C5.26121094 -0.07410156 6.08492187 -0.08570313 6.93359375 -0.09765625 C9 0 9 0 10 1 C12.06778858 1.29964406 14.1442949 1.53954611 16.22265625 1.75390625 C17.48271484 1.88603516 18.74277344 2.01816406 20.04101562 2.15429688 C21.38150082 2.2904591 22.72199574 2.42652556 24.0625 2.5625 C25.40694293 2.70207106 26.75134463 2.84203986 28.09570312 2.98242188 C31.3967494 3.32554138 34.69816731 3.66454667 38 4 C38 4.66 38 5.32 38 6 C41.3 6 44.6 6 48 6 C48 6.66 48 7.32 48 8 C47.35933594 8.03738281 46.71867187 8.07476562 46.05859375 8.11328125 C40.39993859 8.54337277 36.07826187 9.46086906 31 12 C31 11.34 31 10.68 31 10 C31.99 9.67 32.98 9.34 34 9 C34.33 8.34 34.66 7.68 35 7 C34.25314941 6.91959473 33.50629883 6.83918945 32.73681641 6.75634766 C29.36515438 6.38825311 25.99513613 6.00680191 22.625 5.625 C21.449375 5.49867187 20.27375 5.37234375 19.0625 5.2421875 C17.94101562 5.11328125 16.81953125 4.984375 15.6640625 4.8515625 C14.62717285 4.73635254 13.5902832 4.62114258 12.52197266 4.50244141 C10 4 10 4 8 2 C5.34462628 1.43479997 2.70855287 1.26211802 0 1 C0 0.67 0 0.34 0 0 Z " fill="#B5CBDB" transform="translate(18,44)"/>
<path d="M0 0 C0 4.29 0 8.58 0 13 C-6.3836478 11.72327044 -6.3836478 11.72327044 -9 8 C-9 4.875 -9 4.875 -8 2 C-5.14088761 -0.16898181 -3.71556422 0 0 0 Z " fill="#A9C6DA" transform="translate(75,79)"/>
<path d="M0 0 C1.65 0 3.3 0 5 0 C5 4.95 5 9.9 5 15 C3.35 15 1.7 15 0 15 C0 13.02 0 11.04 0 9 C-1.32 9 -2.64 9 -4 9 C-4 8.01 -4 7.02 -4 6 C-2.68 6 -1.36 6 0 6 C0 4.02 0 2.04 0 0 Z " fill="#25A1E0" transform="translate(111,86)"/>
<path d="M0 0 C0.763125 0.00902344 1.52625 0.01804688 2.3125 0.02734375 C2.869375 0.03894531 3.42625 0.05054688 4 0.0625 C4 1.39583333 4 2.72916667 4 4.0625 C-0.62 4.3925 -5.24 4.7225 -10 5.0625 C-10 6.7125 -10 8.3625 -10 10.0625 C-10.66 10.0625 -11.32 10.0625 -12 10.0625 C-12 12.3725 -12 14.6825 -12 17.0625 C-9.36 17.0625 -6.72 17.0625 -4 17.0625 C-7.46214649 19.11414237 -8.59389235 19.0625 -13 19.0625 C-13 13.1225 -13 7.1825 -13 1.0625 C-4 -0.0625 -4 -0.0625 0 0 Z " fill="#BAD1E0" transform="translate(94,48.9375)"/>
<path d="M0 0 C0 2.31 0 4.62 0 7 C-5.28 6.34 -10.56 5.68 -16 5 C-16 4.34 -16 3.68 -16 3 C-16.66 3 -17.32 3 -18 3 C-18 2.34 -18 1.68 -18 1 C-15.37504621 0.83257698 -12.75004205 0.6660283 -10.125 0.5 C-9.00544922 0.42845703 -9.00544922 0.42845703 -7.86328125 0.35546875 C-2.2265625 0 -2.2265625 0 0 0 Z " fill="#F4F7F8" transform="translate(72,60)"/>
<path d="M0 0 C0.33 0 0.66 0 1 0 C1.19384179 2.81219705 1.38036603 5.62454196 1.5625 8.4375 C1.61857422 9.23994141 1.67464844 10.04238281 1.73242188 10.86914062 C1.8616295 12.91062111 1.9351273 14.95546369 2 17 C0.16346389 18.83653611 -2.65792133 18.21628138 -5.125 18.25 C-10.58938104 18.22595432 -14.25139926 17.65038181 -19 15 C-19 14.34 -19 13.68 -19 13 C-19.99 13 -20.98 13 -22 13 C-22 11.35 -22 9.7 -22 8 C-21.04738281 7.93941406 -20.09476563 7.87882812 -19.11328125 7.81640625 C-17.23189453 7.69072266 -17.23189453 7.69072266 -15.3125 7.5625 C-14.07113281 7.48128906 -12.82976563 7.40007813 -11.55078125 7.31640625 C-8.60317138 7.05374795 -5.84781249 6.79781018 -3 6 C-2.67 5.34 -2.34 4.68 -2 4 C-2 4.99 -2 5.98 -2 7 C-5.74235319 9.44989101 -9.44225419 9.23086143 -13.75 9.125 C-14.44738281 9.11597656 -15.14476562 9.10695313 -15.86328125 9.09765625 C-17.57566958 9.07419888 -19.28788004 9.03833104 -21 9 C-21 9.99 -21 10.98 -21 12 C-20.01 12 -19.02 12 -18 12 C-18 12.66 -18 13.32 -18 14 C-16.6078125 14.185625 -16.6078125 14.185625 -15.1875 14.375 C-10.0979309 15.09759314 -5.05396792 16.06408001 0 17 C0 11.39 0 5.78 0 0 Z " fill="#6299C3" transform="translate(74,51)"/>
<path d="M0 0 C2.31 0.33 4.62 0.66 7 1 C7.33 2.98 7.66 4.96 8 7 C3.375 11 3.375 11 0 11 C0 7.37 0 3.74 0 0 Z " fill="#C1D5E2" transform="translate(80,80)"/>
<path d="M0 0 C0 0.99 0 1.98 0 3 C0.33 3.99 0.66 4.98 1 6 C0 7 0 7 -2.625 7.1875 C-6.41836648 6.97675742 -9.39285416 6.15428667 -13 5 C-12.67 3.68 -12.34 2.36 -12 1 C-7.58774263 -0.47075246 -4.51718381 -1.36884358 0 0 Z " fill="#3267A0" transform="translate(33,38)"/>
<path d="M0 0 C0.66 0 1.32 0 2 0 C2 7.26 2 14.52 2 22 C2.66 22.33 3.32 22.66 4 23 C3.34 23 2.68 23 2 23 C2 25.97 2 28.94 2 32 C1.34 32 0.68 32 0 32 C0 21.44 0 10.88 0 0 Z " fill="#3496C8" transform="translate(16,12)"/>
<path d="M0 0 C0.99 0 1.98 0 3 0 C3.33 4.95 3.66 9.9 4 15 C3.34 15 2.68 15 2 15 C2 14.34 2 13.68 2 13 C1.21625 12.87625 0.4325 12.7525 -0.375 12.625 C-3 12 -3 12 -5 10 C-4.625 7.875 -4.625 7.875 -4 6 C-3.01 7.65 -2.02 9.3 -1 11 C-1.01160156 10.28972656 -1.02320312 9.57945312 -1.03515625 8.84765625 C-1.04869141 7.46900391 -1.04869141 7.46900391 -1.0625 6.0625 C-1.07410156 5.14597656 -1.08570312 4.22945312 -1.09765625 3.28515625 C-1 1 -1 1 0 0 Z " fill="#ADC8DA" transform="translate(73,140)"/>
<path d="M0 0 C0.99 0.66 1.98 1.32 3 2 C-2.71271093 4.0662997 -7.03654233 4.0006709 -13 3 C-13.33 5.64 -13.66 8.28 -14 11 C-15.32 11.33 -16.64 11.66 -18 12 C-17.34 11.67 -16.68 11.34 -16 11 C-15.896875 9.72125 -15.79375 8.4425 -15.6875 7.125 C-15.25885628 3.26720648 -15.25885628 3.26720648 -13.0625 1 C-8.73216 -0.41398857 -4.51652399 -0.58944466 0 0 Z " fill="#7BABCD" transform="translate(108,22)"/>
<path d="M0 0 C1.32 0 2.64 0 4 0 C4 2.97 4 5.94 4 9 C1.625 9.125 1.625 9.125 -1 9 C-1.66 8.34 -2.32 7.68 -3 7 C-2.67028521 3.70285207 -2.3773161 2.3773161 0 0 Z " fill="#D3E0E9" transform="translate(71,104)"/>
<path d="M0 0 C0 0.66 0 1.32 0 2 C0.99 2 1.98 2 3 2 C3 3.98 3 5.96 3 8 C-3.52307692 8.36923077 -3.52307692 8.36923077 -5.9375 6.5 C-6.4634375 5.7575 -6.4634375 5.7575 -7 5 C-5.68 4.67 -4.36 4.34 -3 4 C-3 3.34 -3 2.68 -3 2 C-3.66 1.67 -4.32 1.34 -5 1 C-2 0 -2 0 0 0 Z " fill="#30649E" transform="translate(133,34)"/>
<path d="M0 0 C2.97 0 5.94 0 9 0 C9.33 0.66 9.66 1.32 10 2 C9.67 2.99 9.34 3.98 9 5 C1.25 5.125 1.25 5.125 -1 4 C-1.33 4.99 -1.66 5.98 -2 7 C-1.125 2.25 -1.125 2.25 0 0 Z " fill="#6BA1C8" transform="translate(72,20)"/>
<path d="M0 0 C5.28 0.33 10.56 0.66 16 1 C16 2.32 16 3.64 16 5 C14.02 5.33 12.04 5.66 10 6 C10 5.01 10 4.02 10 3 C8.906875 3.061875 7.81375 3.12375 6.6875 3.1875 C3 3 3 3 0 0 Z " fill="#D3E0EA" transform="translate(84,59)"/>
<path d="M0 0 C1.32 0.33 2.64 0.66 4 1 C4.17673419 5.5067218 4.13551182 8.96625544 2 13 C1.01 13.495 1.01 13.495 0 14 C0 9.38 0 4.76 0 0 Z " fill="#BFD5E2" transform="translate(78,140)"/>
<path d="M0 0 C0 0.33 0 0.66 0 1 C-0.96421875 1.19335938 -1.9284375 1.38671875 -2.921875 1.5859375 C-4.81679688 1.97652344 -4.81679688 1.97652344 -6.75 2.375 C-8.00296875 2.63023438 -9.2559375 2.88546875 -10.546875 3.1484375 C-13.40164118 3.85244093 -15.42646757 4.69065894 -18 6 C-20.33203812 6.0777346 -22.66839059 6.08967728 -25 6 C-23.66666667 5.33333333 -22.33333333 4.66666667 -21 4 C-20.030625 3.484375 -19.06125 2.96875 -18.0625 2.4375 C-12.09367749 -0.3641922 -6.48047335 -0.11325099 0 0 Z " fill="#5E97C0" transform="translate(48,27)"/>
<path d="M0 0 C5.94 0.33 11.88 0.66 18 1 C18 1.66 18 2.32 18 3 C17.35933594 3.03738281 16.71867187 3.07476562 16.05859375 3.11328125 C10.39993859 3.54337277 6.07826187 4.46086906 1 7 C1 6.34 1 5.68 1 5 C1.99 4.67 2.98 4.34 4 4 C4.33 3.34 4.66 2.68 5 2 C3.35 1.67 1.7 1.34 0 1 C0 0.67 0 0.34 0 0 Z " fill="#D7E4EC" transform="translate(48,49)"/>
<path d="M0 0 C4 1 4 1 5 2 C5.1875 4.4375 5.1875 4.4375 5 7 C4.34 7.66 3.68 8.32 3 9 C2.01 9 1.02 9 0 9 C0 6.03 0 3.06 0 0 Z " fill="#E4EBF0" transform="translate(80,104)"/>
<path d="M0 0 C0.66 0.66 1.32 1.32 2 2 C1.74964126 6.50645731 1.25629805 9.74370195 -2 13 C-2.66 13 -3.32 13 -4 13 C-3.67 9.7 -3.34 6.4 -3 3 C-2.34 3.33 -1.68 3.66 -1 4 C-0.67 2.68 -0.34 1.36 0 0 Z " fill="#6F9ABF" transform="translate(85,139)"/>
<path d="M0 0 C2.31 0 4.62 0 7 0 C7 3.63 7 7.26 7 11 C6.01 11 5.02 11 4 11 C4 7.7 4 4.4 4 1 C2.68 0.67 1.36 0.34 0 0 Z " fill="#5595C2" transform="translate(72,103)"/>
<path d="M0 0 C0 2.97 0 5.94 0 9 C-1.32 8.67 -2.64 8.34 -4 8 C-4.33 5.69 -4.66 3.38 -5 1 C-2 0 -2 0 0 0 Z " fill="#F7F8F8" transform="translate(73,81)"/>
<path d="M0 0 C0.99 0 1.98 0 3 0 C3.33 2.31 3.66 4.62 4 7 C2.35 7.33 0.7 7.66 -1 8 C-1.04241723 5.66705225 -1.04092937 3.33297433 -1 1 C-0.67 0.67 -0.34 0.34 0 0 Z " fill="#F4F6F6" transform="translate(82,82)"/>
<path d="M0 0 C1.32 0.33 2.64 0.66 4 1 C4.33 2.65 4.66 4.3 5 6 C3.35 6.33 1.7 6.66 0 7 C0 4.69 0 2.38 0 0 Z " fill="#C2D5E2" transform="translate(79,125)"/>
<path d="M0 0 C5.28 0 10.56 0 16 0 C16.33 0.66 16.66 1.32 17 2 C16.2575 1.979375 15.515 1.95875 14.75 1.9375 C12.29537721 1.99328688 10.33890739 2.3069904 8 3 C8 2.34 8 1.68 8 1 C3.545 1.495 3.545 1.495 -1 2 C-0.67 1.34 -0.34 0.68 0 0 Z " fill="#5B97C2" transform="translate(54,53)"/>
<path d="M0 0 C5.28 0 10.56 0 16 0 C16.33 0.66 16.66 1.32 17 2 C15.9275 1.979375 14.855 1.95875 13.75 1.9375 C10.85209576 1.9857984 8.71387859 2.13155885 6 3 C6 2.34 6 1.68 6 1 C3.69 1.33 1.38 1.66 -1 2 C-0.67 1.34 -0.34 0.68 0 0 Z " fill="#5B96C1" transform="translate(84,53)"/>
<path d="M0 0 C1.32 0.33 2.64 0.66 4 1 C4.144375 1.7425 4.28875 2.485 4.4375 3.25 C4.90187492 5.52027739 5.41863569 7.75759479 6 10 C2.7169902 11.6415049 -0.42545033 10.51888624 -4 10 C-4 9.67 -4 9.34 -4 9 C-1.69 9 0.62 9 3 9 C3 6.69 3 4.38 3 2 C2.01 2 1.02 2 0 2 C0 1.34 0 0.68 0 0 Z " fill="#3B85B9" transform="translate(133,34)"/>
<path d="M0 0 C0.99 0.33 1.98 0.66 3 1 C3 4.3 3 7.6 3 11 C1.35 11.66 -0.3 12.32 -2 13 C-1.34 12.01 -0.68 11.02 0 10 C0.24150773 7.48415109 0.24150773 7.48415109 0.125 4.8125 C0.10695313 3.91144531 0.08890625 3.01039062 0.0703125 2.08203125 C0.04710938 1.39496094 0.02390625 0.70789063 0 0 Z " fill="#B4CCDD" transform="translate(89,122)"/>
<path d="M0 0 C4.85963179 0.60745397 8.7405518 2.72758967 13 5 C10.43640146 6.28179927 9.28041467 5.87670752 6.5 5.3125 C5.30890625 5.09013672 5.30890625 5.09013672 4.09375 4.86328125 C2 4 2 4 0.71875 1.91796875 C0.4815625 1.28503906 0.244375 0.65210937 0 0 Z " fill="#8EB6D2" transform="translate(116,26)"/>
<path d="M0 0 C5.02254631 -0.2954439 7.89542386 0.01485372 12 3 C9.18515955 4.40742022 7.43063887 3.66652164 4.375 3.0625 C3.37210937 2.86785156 2.36921875 2.67320313 1.3359375 2.47265625 C0.56507812 2.31667969 -0.20578125 2.16070313 -1 2 C-0.67 1.34 -0.34 0.68 0 0 Z " fill="#609BC6" transform="translate(105,24)"/>
<path d="M0 0 C0.99 0 1.98 0 3 0 C3 2.31 3 4.62 3 7 C1.68 6.67 0.36 6.34 -1 6 C-0.67 4.02 -0.34 2.04 0 0 Z " fill="#CDDCE5" transform="translate(72,125)"/>
<path d="M0 0 C1.33332095 2.6666419 0.67102033 4.16680303 0 7 C0.66 7 1.32 7 2 7 C4.125 8.875 4.125 8.875 6 11 C6 11.66 6 12.32 6 13 C3.50638429 11.79618552 1.31856917 10.54571278 -1 9 C-1.47114738 6.2572492 -1.17805784 3.80441103 -1 1 C-0.67 0.67 -0.34 0.34 0 0 Z " fill="#90B6D2" transform="translate(47,56)"/>
<path d="M0 0 C0 3.3 0 6.6 0 10 C-3 7 -3 7 -3.1875 3.8125 C-3.125625 2.884375 -3.06375 1.95625 -3 1 C-1 0 -1 0 0 0 Z " fill="#E2EAEF" transform="translate(75,141)"/>
<path d="M0 0 C-0.33 0.66 -0.66 1.32 -1 2 C-1.99 2 -2.98 2 -4 2 C-3.34 3.32 -2.68 4.64 -2 6 C-3.65 5.67 -5.3 5.34 -7 5 C-7 3.68 -7 2.36 -7 1 C-4.53721199 -0.231394 -2.7204945 -0.07159196 0 0 Z " fill="#92B6D1" transform="translate(98,71)"/>
<path d="M0 0 C0.90105469 0.00902344 1.80210938 0.01804687 2.73046875 0.02734375 C3.41753906 0.03894531 4.10460938 0.05054687 4.8125 0.0625 C4.8125 0.3925 4.8125 0.7225 4.8125 1.0625 C-3.61607143 3.34821429 -3.61607143 3.34821429 -8.1875 3.0625 C-8.1875 2.4025 -8.1875 1.7425 -8.1875 1.0625 C-5.17259443 0.05753148 -3.14568308 -0.04085303 0 0 Z " fill="#4C8DBE" transform="translate(43.1875,26.9375)"/>
<path d="M0 0 C1.875 0.1875 1.875 0.1875 4 1 C5.25 3.5625 5.25 3.5625 6 6 C5.01 6.66 4.02 7.32 3 8 C3 7.01 3 6.02 3 5 C2.34 5 1.68 5 1 5 C0.67 3.35 0.34 1.7 0 0 Z " fill="#C0DEEE" transform="translate(51,87)"/>
<path d="M0 0 C-0.33 0.66 -0.66 1.32 -1 2 C-3.28515625 2.4140625 -3.28515625 2.4140625 -6.0625 2.625 C-6.98160156 2.69976562 -7.90070312 2.77453125 -8.84765625 2.8515625 C-9.55792969 2.90054688 -10.26820312 2.94953125 -11 3 C-7.46647659 -0.87004945 -5.02196482 -1.22155901 0 0 Z " fill="#3571A9" transform="translate(33,38)"/>
<path d="M0 0 C0.99 0.33 1.98 0.66 3 1 C3 1.66 3 2.32 3 3 C4.65 3.33 6.3 3.66 8 4 C8 4.66 8 5.32 8 6 C4.62537285 5.45276317 2.91765 4.9451 0 3 C0 2.01 0 1.02 0 0 Z " fill="#4483B6" transform="translate(71,24)"/>
<path d="M0 0 C1.32 0.33 2.64 0.66 4 1 C3.67 1.66 3.34 2.32 3 3 C-1.29 3 -5.58 3 -10 3 C-10 2.67 -10 2.34 -10 2 C-6.7 2 -3.4 2 0 2 C0 1.34 0 0.68 0 0 Z " fill="#9EBFD5" transform="translate(66,50)"/>
<path d="M0 0 C0 0.33 0 0.66 0 1 C-2.64 1 -5.28 1 -8 1 C-8.33 0.34 -8.66 -0.32 -9 -1 C-5.79937313 -2.60031344 -3.27728194 -1.03173691 0 0 Z " fill="#356EA6" transform="translate(135,40)"/>
<path d="M0 0 C2.97 0 5.94 0 9 0 C8.01 1.485 8.01 1.485 7 3 C4.69 2.67 2.38 2.34 0 2 C0 1.34 0 0.68 0 0 Z " fill="#83B0D0" transform="translate(72,20)"/>
</svg>
